<svg width="512" height="512" viewBox="0 0 512 512" xmlns="http://www.w3.org/2000/svg">
  <defs>
    <linearGradient id="gotly-bg" x1="64" y1="48" x2="448" y2="464" gradientUnits="userSpaceOnUse">
      <stop stop-color="#1a2128" />
      <stop offset="1" stop-color="#111417" />
    </linearGradient>
    <linearGradient id="gotly-bubble" x1="166" y1="148" x2="358" y2="332" gradientUnits="userSpaceOnUse">
      <stop stop-color="#d5e5ff" stop-opacity="0.96" />
      <stop offset="1" stop-color="#8eb8ff" stop-opacity="0.86" />
    </linearGradient>
  </defs>

  <rect x="40" y="40" width="432" height="432" rx="120" fill="url(#gotly-bg)" />
  <rect x="68" y="68" width="376" height="376" rx="104" fill="#ffffff" fill-opacity="0.04" />

  <path
    d="M168 194C168 170.804 186.804 152 210 152H302C325.196 152 344 170.804 344 194V262C344 285.196 325.196 304 302 304H250L196 352V304H210C186.804 304 168 285.196 168 262V194Z"
    fill="url(#gotly-bubble)"
  />

  <path
    d="M214 230L246 262L298 206"
    fill="none"
    stroke="#ffffff"
    stroke-linecap="round"
    stroke-linejoin="round"
    stroke-width="28"
  />
</svg>
